<svg width="16" height="10" viewBox="0 0 16 10" fill="none" xmlns="http://www.w3.org/2000/svg">
<path d="M0.352185 0.352185C0.577756 0.126681 0.883657 0 1.20262 0C1.52157 0 1.82747 0.126681 2.05305 0.352185L8.00726 6.3064L13.9615 0.352185C14.1883 0.133072 14.4922 0.0118287 14.8076 0.0145694C15.123 0.01731 15.4247 0.143815 15.6477 0.366837C15.8707 0.58986 15.9972 0.891555 16 1.20694C16.0027 1.52233 15.8815 1.82618 15.6623 2.05305L8.85769 8.85769C8.63212 9.0832 8.32622 9.20988 8.00726 9.20988C7.6883 9.20988 7.3824 9.0832 7.15683 8.85769L0.352185 2.05305C0.126681 1.82747 0 1.52157 0 1.20262C0 0.883657 0.126681 0.577757 0.352185 0.352185Z" fill="#CFCFCF"/>
</svg>
