<svg width="20" height="20" viewBox="0 0 20 20" fill="none" xmlns="http://www.w3.org/2000/svg">
<path d="M10 18.75C7.67936 18.75 5.45376 17.8281 3.81282 16.1872C2.17187 14.5462 1.25 12.3206 1.25 10C1.25 7.67936 2.17187 5.45376 3.81282 3.81282C5.45376 2.17187 7.67936 1.25 10 1.25C12.3206 1.25 14.5462 2.17187 16.1872 3.81282C17.8281 5.45376 18.75 7.67936 18.75 10C18.75 12.3206 17.8281 14.5462 16.1872 16.1872C14.5462 17.8281 12.3206 18.75 10 18.75ZM10 20C12.6522 20 15.1957 18.9464 17.0711 17.0711C18.9464 15.1957 20 12.6522 20 10C20 7.34784 18.9464 4.8043 17.0711 2.92893C15.1957 1.05357 12.6522 0 10 0C7.34784 0 4.8043 1.05357 2.92893 2.92893C1.05357 4.8043 0 7.34784 0 10C0 12.6522 1.05357 15.1957 2.92893 17.0711C4.8043 18.9464 7.34784 20 10 20Z" fill="#363636"/>
<path d="M5.80752 5.8074C5.86558 5.74919 5.93454 5.70301 6.01048 5.67151C6.08641 5.64 6.16781 5.62378 6.25002 5.62378C6.33223 5.62378 6.41363 5.64 6.48956 5.67151C6.56549 5.70301 6.63446 5.74919 6.69252 5.8074L10 9.11615L13.3075 5.8074C13.3656 5.74929 13.4346 5.70319 13.5105 5.67174C13.5865 5.64029 13.6678 5.62411 13.75 5.62411C13.8322 5.62411 13.9136 5.64029 13.9895 5.67174C14.0654 5.70319 14.1344 5.74929 14.1925 5.8074C14.2506 5.86551 14.2967 5.93449 14.3282 6.01042C14.3596 6.08634 14.3758 6.16772 14.3758 6.2499C14.3758 6.33208 14.3596 6.41345 14.3282 6.48938C14.2967 6.5653 14.2506 6.63429 14.1925 6.6924L10.8838 9.9999L14.1925 13.3074C14.2506 13.3655 14.2967 13.4345 14.3282 13.5104C14.3596 13.5863 14.3758 13.6677 14.3758 13.7499C14.3758 13.8321 14.3596 13.9135 14.3282 13.9894C14.2967 14.0653 14.2506 14.1343 14.1925 14.1924C14.1344 14.2505 14.0654 14.2966 13.9895 14.3281C13.9136 14.3595 13.8322 14.3757 13.75 14.3757C13.6678 14.3757 13.5865 14.3595 13.5105 14.3281C13.4346 14.2966 13.3656 14.2505 13.3075 14.1924L10 10.8836L6.69252 14.1924C6.63441 14.2505 6.56542 14.2966 6.4895 14.3281C6.41357 14.3595 6.3322 14.3757 6.25002 14.3757C6.16784 14.3757 6.08646 14.3595 6.01054 14.3281C5.93461 14.2966 5.86563 14.2505 5.80752 14.1924C5.74941 14.1343 5.70331 14.0653 5.67186 13.9894C5.64042 13.9135 5.62423 13.8321 5.62423 13.7499C5.62423 13.6677 5.64042 13.5863 5.67186 13.5104C5.70331 13.4345 5.74941 13.3655 5.80752 13.3074L9.11627 9.9999L5.80752 6.6924C5.74931 6.63434 5.70314 6.56537 5.67163 6.48944C5.64012 6.41351 5.6239 6.33211 5.6239 6.2499C5.6239 6.16769 5.64012 6.08629 5.67163 6.01035C5.70314 5.93442 5.74931 5.86545 5.80752 5.8074Z" fill="#363636"/>
</svg>
