<svg width="46" height="46" viewBox="0 0 46 46" fill="none" xmlns="http://www.w3.org/2000/svg">
<path d="M23 45.75C35.5645 45.75 45.75 35.5645 45.75 23C45.75 10.4355 35.5645 0.25 23 0.25C10.4355 0.25 0.25 10.4355 0.25 23C0.25 35.5645 10.4355 45.75 23 45.75ZM21.375 14.875C21.375 14.444 21.5462 14.0307 21.851 13.726C22.1557 13.4212 22.569 13.25 23 13.25C23.431 13.25 23.8443 13.4212 24.149 13.726C24.4538 14.0307 24.625 14.444 24.625 14.875V21.375H31.125C31.556 21.375 31.9693 21.5462 32.274 21.851C32.5788 22.1557 32.75 22.569 32.75 23C32.75 23.431 32.5788 23.8443 32.274 24.149C31.9693 24.4538 31.556 24.625 31.125 24.625H24.625V31.125C24.625 31.556 24.4538 31.9693 24.149 32.274C23.8443 32.5788 23.431 32.75 23 32.75C22.569 32.75 22.1557 32.5788 21.851 32.274C21.5462 31.9693 21.375 31.556 21.375 31.125V24.625H14.875C14.444 24.625 14.0307 24.4538 13.726 24.149C13.4212 23.8443 13.25 23.431 13.25 23C13.25 22.569 13.4212 22.1557 13.726 21.851C14.0307 21.5462 14.444 21.375 14.875 21.375H21.375V14.875Z" fill="#0265F9"/>
</svg>
