<svg width="100" height="100" viewBox="0 0 100 100" fill="none" xmlns="http://www.w3.org/2000/svg">
<circle cx="50" cy="50" r="50" fill="#E2E2E2"/>
<path d="M59.3333 62H40.6667C39.1939 62 38 60.8061 38 59.3333V40.6667C38 39.1939 39.1939 38 40.6667 38H59.3333C60.8061 38 62 39.1939 62 40.6667V59.3333C62 60.8061 60.8061 62 59.3333 62ZM40.6667 40.6667V59.3333H59.3333V40.6667H40.6667ZM58 56.6667H42L46 51.3333L47.3333 52.6667L51.3333 47.3333L58 56.6667ZM45.3333 48.6667C44.2288 48.6667 43.3333 47.7712 43.3333 46.6667C43.3333 45.5621 44.2288 44.6667 45.3333 44.6667C46.4379 44.6667 47.3333 45.5621 47.3333 46.6667C47.3333 47.7712 46.4379 48.6667 45.3333 48.6667Z" fill="white"/>
</svg>
