<svg width="13" height="13" viewBox="0 0 13 13" fill="none" xmlns="http://www.w3.org/2000/svg">
<path d="M6 12.024C4.36 12.024 4.16667 12.0153 3.52667 11.9873C3.02758 11.9709 2.53496 11.8695 2.07 11.6873C1.26554 11.3743 0.629427 10.7379 0.316667 9.93333C0.141537 9.46669 0.0470786 8.97366 0.0373333 8.47533C0 7.83667 0 7.62733 0 6C0 4.35533 0.00866667 4.16333 0.0373333 3.52667C0.0472918 3.02901 0.141747 2.53667 0.316667 2.07067C0.629088 1.26502 1.26623 0.628115 2.072 0.316C2.53776 0.140135 3.03023 0.0454295 3.528 0.036C4.16467 0 4.374 0 6 0C7.65333 0 7.84333 0.00866667 8.47333 0.036C8.97239 0.0455111 9.46616 0.140206 9.93333 0.316C10.7389 0.628469 11.3759 1.26525 11.6887 2.07067C11.8667 2.54346 11.9617 3.0435 11.9693 3.54867C12.0067 4.18733 12.0067 4.396 12.0067 6.02267C12.0067 7.64933 11.9973 7.86267 11.9693 8.494C11.9594 8.9928 11.8647 9.48628 11.6893 9.95333C11.3758 10.7585 10.7387 11.3951 9.93333 11.708C9.46683 11.8828 8.97407 11.9772 8.476 11.9873C7.83933 12.024 7.63067 12.024 6 12.024ZM5.97733 1.05533C4.34667 1.05533 4.17733 1.06333 3.54067 1.092C3.16066 1.09703 2.78432 1.16716 2.428 1.29933C1.90183 1.50067 1.48548 1.91533 1.282 2.44067C1.14881 2.80087 1.07867 3.18132 1.07467 3.56533C1.03933 4.21133 1.03933 4.38067 1.03933 6C1.03933 7.6 1.04533 7.794 1.07467 8.436C1.08063 8.81614 1.15073 9.19253 1.282 9.54933C1.48578 10.0743 1.90206 10.4887 2.428 10.69C2.78408 10.8231 3.16057 10.8932 3.54067 10.8973C4.186 10.9347 4.356 10.9347 5.97733 10.9347C7.61267 10.9347 7.782 10.9267 8.41333 10.8973C8.7936 10.8927 9.17022 10.8226 9.52667 10.69C10.0496 10.4869 10.4633 10.0735 10.6667 9.55067C10.7996 9.19017 10.8697 8.80954 10.874 8.42533H10.8813C10.91 7.788 10.91 7.618 10.91 5.98933C10.91 4.36067 10.9027 4.18933 10.874 3.55267C10.868 3.17297 10.7979 2.79701 10.6667 2.44067C10.4637 1.91705 10.05 1.50286 9.52667 1.29933C9.1703 1.16649 8.79363 1.09635 8.41333 1.092C7.76867 1.05533 7.6 1.05533 5.97733 1.05533ZM6 9.07933C4.75333 9.08014 3.62895 8.32982 3.15124 7.1783C2.67354 6.02679 2.9366 4.70089 3.81775 3.81897C4.6989 2.93706 6.02457 2.67285 7.17651 3.14955C8.32844 3.62626 9.07973 4.74999 9.08 5.99667C9.07817 7.69738 7.70071 9.07603 6 9.07933ZM6 3.99533C4.89543 3.99533 4 4.89076 4 5.99533C4 7.0999 4.89543 7.99533 6 7.99533C7.10457 7.99533 8 7.0999 8 5.99533C7.99743 4.89183 7.1035 3.9979 6 3.99533ZM9.2 3.52C8.80362 3.51853 8.48327 3.19639 8.484 2.80001C8.48474 2.40362 8.80628 2.08267 9.20266 2.08267C9.59905 2.08267 9.9206 2.40361 9.92133 2.8C9.92151 2.99124 9.84553 3.17468 9.71017 3.30979C9.57482 3.44489 9.39124 3.52053 9.2 3.52Z" fill="#848484"/>
</svg>
