<svg width="40" height="40" viewBox="0 0 40 40" fill="none" xmlns="http://www.w3.org/2000/svg">
<circle cx="20" cy="20" r="20" fill="#E2E2E2"/>
<path d="M23.7326 24.8002H16.2659C15.6768 24.8002 15.1992 24.3226 15.1992 23.7335V16.2669C15.1992 15.6778 15.6768 15.2002 16.2659 15.2002H23.7326C24.3217 15.2002 24.7992 15.6778 24.7992 16.2669V23.7335C24.7992 24.3226 24.3217 24.8002 23.7326 24.8002ZM16.2659 16.2669V23.7335H23.7326V16.2669H16.2659ZM23.1992 22.6669H16.7992L18.3992 20.5335L18.9326 21.0669L20.5326 18.9335L23.1992 22.6669ZM18.1326 19.4669C17.6907 19.4669 17.3326 19.1087 17.3326 18.6669C17.3326 18.225 17.6907 17.8669 18.1326 17.8669C18.5744 17.8669 18.9326 18.225 18.9326 18.6669C18.9326 19.1087 18.5744 19.4669 18.1326 19.4669Z" fill="white"/>
</svg>
