<svg width="20" height="19" viewBox="0 0 20 19" fill="none" xmlns="http://www.w3.org/2000/svg">
<path d="M17.97 18.385L14.614 15.029C13.1661 15.6882 11.5908 16.0204 10 16.002C8.35988 16.0224 6.73671 15.6684 5.254 14.967C4.10468 14.4063 3.07264 13.6318 2.213 12.685C1.30049 11.7069 0.583297 10.5634 0.1 9.31601L0 9.00201L0.105 8.68601C0.82781 6.84231 2.04426 5.23318 3.621 4.03501L1 1.41401L2.413 0.00201416L19.382 16.971L17.972 18.385H17.97ZM5.036 5.45101C3.75792 6.34693 2.74865 7.57472 2.117 9.00201C3.47142 12.1269 6.59587 14.1087 10 14.002C11.0498 14.0106 12.0936 13.8416 13.087 13.502L11.287 11.702C10.8863 11.8984 10.4462 12.001 10 12.002C8.34746 11.9916 7.01037 10.6546 7 9.00201C7.00048 8.55478 7.10309 8.11356 7.3 7.71201L5.036 5.45101ZM17.852 12.612L16.46 11.221C17.0456 10.5589 17.5256 9.81046 17.883 9.00201C16.5304 5.87559 13.4047 3.89309 10 4.00201C9.753 4.00201 9.505 4.01101 9.265 4.02801L7.5 2.26101C8.32163 2.08525 9.15979 1.99841 10 2.00201C11.6401 1.98166 13.2633 2.33564 14.746 3.03701C15.8953 3.59775 16.9274 4.37221 17.787 5.31901C18.6991 6.29598 19.4163 7.43809 19.9 8.68401L20 9.00201L19.895 9.31801C19.4268 10.5361 18.7342 11.6555 17.853 12.618L17.852 12.612Z" fill="#848484"/>
</svg>
