<svg width="12" height="8" viewBox="0 0 12 8" fill="none" xmlns="http://www.w3.org/2000/svg">
<path d="M0.710022 7.12284C0.802536 7.21554 0.912424 7.28909 1.0334 7.33927C1.15437 7.38945 1.28405 7.41528 1.41502 7.41528C1.54599 7.41528 1.67567 7.38945 1.79665 7.33927C1.91762 7.28909 2.02751 7.21554 2.12002 7.12284L6.00002 3.24284L9.88002 7.12284C10.067 7.30982 10.3206 7.41486 10.585 7.41486C10.8494 7.41486 11.103 7.30982 11.29 7.12284C11.477 6.93586 11.582 6.68227 11.582 6.41784C11.582 6.15341 11.477 5.89982 11.29 5.71284L6.70002 1.12284C6.60751 1.03014 6.49762 0.956588 6.37665 0.906406C6.25567 0.856225 6.12599 0.830396 5.99502 0.830396C5.86405 0.830396 5.73437 0.856225 5.6134 0.906406C5.49242 0.956588 5.38254 1.03014 5.29002 1.12284L0.700022 5.71284C0.320022 6.09284 0.320022 6.73284 0.710022 7.12284Z" fill="black"/>
</svg>
